0
SECTION
2
HEADER
9
$ACADVER
1
AC1015
9
$INSUNITS
70
4
0
ENDSEC
0
SECTION
2
TABLES
0
TABLE
2
LAYER
70
4
0
LAYER
2
SHELL_REFERENCE
70
0
62
8
6
CONTINUOUS
0
LAYER
2
PROGRAM_UNBUILT
70
0
62
4
6
CONTINUOUS
0
LAYER
2
EQUIPMENT
70
0
62
3
6
CONTINUOUS
0
LAYER
2
DOOR_CANDIDATE
70
0
62
1
6
CONTINUOUS
0
LAYER
2
ANNOTATION
70
0
62
7
6
CONTINUOUS
0
ENDTAB
0
ENDSEC
0
SECTION
2
BLOCKS
0
BLOCK
8
0
2
OBTP_UPPER_BENCH
70
0
10
0
20
0
30
0
3
OBTP_UPPER_BENCH
1

0
LINE
8
EQUIPMENT
10
0
20
0
30
0
11
1
21
0
31
0
0
LINE
8
EQUIPMENT
10
1
20
0
30
0
11
1
21
1
31
0
0
LINE
8
EQUIPMENT
10
1
20
1
30
0
11
0
21
1
31
0
0
LINE
8
EQUIPMENT
10
0
20
1
30
0
11
0
21
0
31
0
0
LINE
8
EQUIPMENT
10
0
20
0.2
30
0
11
1
21
0.2
31
0
0
LINE
8
EQUIPMENT
10
0
20
0.4
30
0
11
1
21
0.4
31
0
0
LINE
8
EQUIPMENT
10
0
20
0.6
30
0
11
1
21
0.6
31
0
0
LINE
8
EQUIPMENT
10
0
20
0.8
30
0
11
1
21
0.8
31
0
0
ENDBLK
8
0
0
BLOCK
8
0
2
OBTP_FOOT_BENCH
70
0
10
0
20
0
30
0
3
OBTP_FOOT_BENCH
1

0
LINE
8
EQUIPMENT
10
0
20
0
30
0
11
1
21
0
31
0
0
LINE
8
EQUIPMENT
10
1
20
0
30
0
11
1
21
1
31
0
0
LINE
8
EQUIPMENT
10
1
20
1
30
0
11
0
21
1
31
0
0
LINE
8
EQUIPMENT
10
0
20
1
30
0
11
0
21
0
31
0
0
LINE
8
EQUIPMENT
10
0
20
0.2
30
0
11
1
21
0.2
31
0
0
LINE
8
EQUIPMENT
10
0
20
0.4
30
0
11
1
21
0.4
31
0
0
LINE
8
EQUIPMENT
10
0
20
0.6
30
0
11
1
21
0.6
31
0
0
LINE
8
EQUIPMENT
10
0
20
0.8
30
0
11
1
21
0.8
31
0
0
ENDBLK
8
0
0
BLOCK
8
0
2
OBTP_SHOWER
70
0
10
0
20
0
30
0
3
OBTP_SHOWER
1

0
LINE
8
EQUIPMENT
10
0
20
0
30
0
11
1
21
0
31
0
0
LINE
8
EQUIPMENT
10
1
20
0
30
0
11
1
21
1
31
0
0
LINE
8
EQUIPMENT
10
1
20
1
30
0
11
0
21
1
31
0
0
LINE
8
EQUIPMENT
10
0
20
1
30
0
11
0
21
0
31
0
0
LINE
8
EQUIPMENT
10
0.1
20
0.1
30
0
11
0.9
21
0.9
31
0
0
CIRCLE
8
EQUIPMENT
10
0.5
20
0.5
30
0
40
0.08
0
ENDBLK
8
0
0
BLOCK
8
0
2
OBTP_CHANGING_SEAT
70
0
10
0
20
0
30
0
3
OBTP_CHANGING_SEAT
1

0
LINE
8
EQUIPMENT
10
0
20
0
30
0
11
1
21
0
31
0
0
LINE
8
EQUIPMENT
10
1
20
0
30
0
11
1
21
1
31
0
0
LINE
8
EQUIPMENT
10
1
20
1
30
0
11
0
21
1
31
0
0
LINE
8
EQUIPMENT
10
0
20
1
30
0
11
0
21
0
31
0
0
LINE
8
EQUIPMENT
10
0.08
20
0.7
30
0
11
0.92
21
0.7
31
0
0
ENDBLK
8
0
0
BLOCK
8
0
2
OBTP_HEATER_SW80
70
0
10
0
20
0
30
0
3
OBTP_HEATER_SW80
1

0
LINE
8
EQUIPMENT
10
0
20
0
30
0
11
1
21
0
31
0
0
LINE
8
EQUIPMENT
10
1
20
0
30
0
11
1
21
1
31
0
0
LINE
8
EQUIPMENT
10
1
20
1
30
0
11
0
21
1
31
0
0
LINE
8
EQUIPMENT
10
0
20
1
30
0
11
0
21
0
31
0
0
LINE
8
EQUIPMENT
10
0.25
20
0.1
30
0
11
0.25
21
0.9
31
0
0
LINE
8
EQUIPMENT
10
0.5
20
0.1
30
0
11
0.5
21
0.9
31
0
0
LINE
8
EQUIPMENT
10
0.75
20
0.1
30
0
11
0.75
21
0.9
31
0
0
ENDBLK
8
0
0
BLOCK
8
0
2
OBTP_DOOR_CANDIDATE
70
0
10
0
20
0
30
0
3
OBTP_DOOR_CANDIDATE
1

0
LINE
8
DOOR_CANDIDATE
10
0
20
0
30
0
11
1
21
0
31
0
0
ARC
8
DOOR_CANDIDATE
10
0
20
0
30
0
40
1
50
0
51
90
0
ENDBLK
8
0
0
ENDSEC
0
SECTION
2
ENTITIES
0
LINE
8
SHELL_REFERENCE
10
0
20
0
30
0
11
4572
21
0
31
0
0
LINE
8
SHELL_REFERENCE
10
4572
20
0
30
0
11
4572
21
6000
31
0
0
LINE
8
SHELL_REFERENCE
10
4572
20
6000
30
0
11
0
21
6000
31
0
0
LINE
8
SHELL_REFERENCE
10
0
20
6000
30
0
11
0
21
0
31
0
0
LINE
8
PROGRAM_UNBUILT
10
486
20
300
30
0
11
4086
21
300
31
0
0
LINE
8
PROGRAM_UNBUILT
10
4086
20
300
30
0
11
4086
21
3300
31
0
0
LINE
8
PROGRAM_UNBUILT
10
4086
20
3300
30
0
11
486
21
3300
31
0
0
LINE
8
PROGRAM_UNBUILT
10
486
20
3300
30
0
11
486
21
300
31
0
0
TEXT
8
ANNOTATION
10
586
20
430
30
0
40
90
1
changing
0
LINE
8
PROGRAM_UNBUILT
10
486
20
3300
30
0
11
2286
21
3300
31
0
0
LINE
8
PROGRAM_UNBUILT
10
2286
20
3300
30
0
11
2286
21
5700
31
0
0
LINE
8
PROGRAM_UNBUILT
10
2286
20
5700
30
0
11
486
21
5700
31
0
0
LINE
8
PROGRAM_UNBUILT
10
486
20
5700
30
0
11
486
21
3300
31
0
0
TEXT
8
ANNOTATION
10
586
20
3430
30
0
40
90
1
sauna
0
LINE
8
PROGRAM_UNBUILT
10
2286
20
3300
30
0
11
4086
21
3300
31
0
0
LINE
8
PROGRAM_UNBUILT
10
4086
20
3300
30
0
11
4086
21
5700
31
0
0
LINE
8
PROGRAM_UNBUILT
10
4086
20
5700
30
0
11
2286
21
5700
31
0
0
LINE
8
PROGRAM_UNBUILT
10
2286
20
5700
30
0
11
2286
21
3300
31
0
0
TEXT
8
ANNOTATION
10
2386
20
3430
30
0
40
90
1
washing
0
INSERT
8
EQUIPMENT
2
OBTP_HEATER_SW80
10
546
20
3620
30
0
41
260
42
430
43
1
50
0
0
TEXT
8
ANNOTATION
10
566
20
3780
30
0
40
90
1
heater
0
INSERT
8
EQUIPMENT
2
OBTP_UPPER_BENCH
10
546
20
5040
30
0
41
1680
42
600
43
1
50
0
0
TEXT
8
ANNOTATION
10
566
20
5200
30
0
40
90
1
upper-bench
0
INSERT
8
EQUIPMENT
2
OBTP_FOOT_BENCH
10
546
20
4590
30
0
41
1230
42
450
43
1
50
0
0
TEXT
8
ANNOTATION
10
566
20
4750
30
0
40
90
1
foot-bench
0
INSERT
8
EQUIPMENT
2
OBTP_SHOWER
10
3126
20
4740
30
0
41
900
42
900
43
1
50
0
0
TEXT
8
ANNOTATION
10
3146
20
4900
30
0
40
90
1
shower
0
INSERT
8
EQUIPMENT
2
OBTP_CHANGING_SEAT
10
546
20
2690
30
0
41
1200
42
550
43
1
50
0
0
TEXT
8
ANNOTATION
10
566
20
2850
30
0
40
90
1
changing-seat
0
INSERT
8
DOOR_CANDIDATE
2
OBTP_DOOR_CANDIDATE
10
2286
20
3550
30
0
41
800
42
-800
43
1
50
90
0
TEXT
8
ANNOTATION
10
2331
20
3595
30
0
40
90
1
sauna-washing
0
INSERT
8
DOOR_CANDIDATE
2
OBTP_DOOR_CANDIDATE
10
2536
20
3300
30
0
41
800
42
-800
43
1
50
0
0
TEXT
8
ANNOTATION
10
2581
20
3345
30
0
40
90
1
washing-changing
0
INSERT
8
DOOR_CANDIDATE
2
OBTP_DOOR_CANDIDATE
10
1836
20
0
30
0
41
900
42
-900
43
1
50
0
0
TEXT
8
ANNOTATION
10
1881
20
45
30
0
40
90
1
entry-front
0
TEXT
8
ANNOTATION
10
120
20
-180
30
0
40
90
1
STUDY ONLY - NO CASSETTE OPENINGS OR FINISHED ROOM FACES
0
TEXT
8
ANNOTATION
10
120
20
-300
30
0
40
90
1
UNITS MM - front at Y=0 - CAD blocks are candidate reservations
0
ENDSEC
0
EOF
